<mxfile host="app.diagrams.net" modified="2024-07-22T10:23:53.211Z" agent="Mozilla/5.0 (Windows NT 10.0; Win64; x64) AppleWebKit/537.36 (KHTML, like Gecko) Chrome/126.0.0.0 Safari/537.36" version="24.6.5" etag="TX9cp3SKrutA2vzOznI5" type="github">
  <diagram name="Page-1" id="msR7cyQrJErSFDU65gBK">
    <mxGraphModel>
      <root>
        <mxCell id="0" />
        <mxCell id="1" parent="0" />
      </root>
    </mxGraphModel>
  </diagram>
</mxfile>
